<svg width="184" height="184" viewBox="0 0 184 184" fill="none" xmlns="http://www.w3.org/2000/svg">
<g clip-path="url(#clip0_4_173)">
<path d="M15.8197 102.916H47.9723C48.0516 102.916 49.2637 103.465 49.4224 103.584C50.7879 104.604 50.4386 107.255 48.7106 107.631C48.0384 107.777 46.3792 107.896 45.5879 107.949C44.1431 108.047 42.6691 107.883 41.2242 107.954C41.0919 108.05 41.4888 108.294 41.4888 108.349V123.987C41.4888 124.066 41.1527 124.191 41.2242 124.384H47.7076L80.2783 91.2647C80.5165 90.663 79.7676 89.3988 79.1986 89.3988H25.2141L24.8171 89.0012V77.6044C24.8171 77.4375 25.2088 75.9506 25.3305 75.7332L84.2398 17.0291L136.758 69.404L137.425 69.2715L146.764 59.8493L108.051 20.472C101.695 14.7975 95.9444 7.4505 89.3895 2.06485C85.8752 -0.824104 82.4906 -0.67303 79.1907 2.45976L0.068911 81.9962C-0.222182 82.7356 0.465856 83.6262 1.183 83.772C5.73464 84.7049 10.9373 83.5626 15.5551 84.3656L15.8223 102.916H15.8197Z" fill="#1F3A8A"/>
<path d="M139.807 147.981C141.045 146.385 140.897 145.908 139.674 144.39L89.3921 94.2994C88.8152 93.7083 88.0557 93.4565 87.2565 93.756C76.6898 104.265 65.8056 114.535 55.5062 125.307C53.8337 127.056 51.2113 129.508 49.8193 131.273C48.9592 132.365 48.2712 133.242 48.7502 134.737L59.2031 145.474L60.1214 145.59L82.5011 127.832C82.8293 128.206 81.3473 129.86 81.051 130.221C76.1712 136.155 70.0847 141.649 65.3107 147.586C64.5804 148.492 63.5298 149.608 64.1173 150.886C68.9335 155.604 73.8265 160.239 78.5423 165.063C79.9633 166.518 82.5699 170.904 84.7558 169.176C90.9349 164.151 96.7541 157.843 103.023 153.017C103.627 152.553 104.164 152.076 105 152.216L87.5767 173.345C87.4709 173.881 87.7884 174.223 88.0663 174.612C88.8814 175.755 91.533 178.299 92.6735 179.396C95.7803 182.389 98.2678 185.166 103.026 183.499C105.664 182.574 112.74 174.962 115.228 172.529C123.503 164.44 131.556 156.099 139.804 147.978L139.807 147.981Z" fill="#2463EB"/>
<path d="M166.336 51.5717C160.654 53.6178 154.189 61.3703 150.41 66.1013C146.29 71.2617 139.299 83.2787 133.673 85.6481C121.957 90.5885 115.929 75.7992 106.442 76.6632C102.809 76.9945 97.2569 83.2972 94.7879 86.0616C94.1448 86.7799 93.5758 87.5724 92.8296 88.2032L145.605 140.827C146.494 141.58 147.799 140.13 148.537 139.494C150.54 137.774 156.6 131.816 157.529 129.682C161.221 121.188 149.921 115.889 149.196 108.609C148.712 103.74 150.215 99.7616 153.689 96.4168C162.104 88.3092 175.982 80.5991 181.957 70.395C188.395 59.3984 178.636 47.1429 166.336 51.5691V51.5717ZM174.045 65.9211C173.338 71.039 164.518 70.9622 165.33 64.3467C165.508 62.8943 167.286 60.8641 168.704 60.5725C172.473 59.796 174.547 62.2794 174.045 65.9211Z" fill="#2463EB"/>
<path d="M81.1782 176.749C68.7855 165.092 57.3085 152.367 45.2017 140.414C42.1505 136.722 41.7271 133.549 42.8121 128.893H29.3159V145.59H39.7688C40.3881 145.59 41.4995 147.411 41.4783 148.079C41.4492 148.991 40.4013 150.361 39.5042 150.361H15.5552L15.8436 173.528C15.8727 175.084 17.8945 177.395 19.3923 177.395H81.5804C81.6413 177.395 81.935 177.899 81.98 177.525C82.1203 177.006 81.5672 177.114 81.1782 176.749Z" fill="#1F3A8A"/>
<path d="M145.885 177.392C147.185 177.392 149.458 174.543 149.458 173.284V146.913L119.025 177.392H145.885Z" fill="#1F3A8A"/>
<path d="M36.7279 107.952H15.5469V124.384H36.7279V107.952Z" fill="#1F3A8A"/>
<path d="M24.8197 128.89H15.5444V145.866H24.8197V128.89Z" fill="#1F3A8A"/>
<path d="M86.4761 70.3156C88.6778 69.9817 96.2489 71.4765 97.6038 69.9313C98.7232 68.6565 97.8922 61.0683 98.0219 59.0408L97.7229 58.6538H86.4761V70.3156Z" fill="#1F3A8A"/>
<path d="M70.8628 68.8579C70.8628 69.6053 71.834 70.4455 72.5988 70.5648C75.6076 71.0313 79.3812 69.8757 82.5065 70.3156V59.0514L82.1096 58.6538H70.8628V68.8579Z" fill="#1F3A8A"/>
<path d="M82.5065 43.9439L82.1096 43.5464H72.0536C71.789 43.5464 70.8628 44.474 70.8628 44.7391V54.9432H82.5065V43.9439Z" fill="#1F3A8A"/>
<path d="M97.8552 44.7391C97.8552 44.6013 97.0375 43.5464 96.929 43.5464H86.4761V54.9432H97.8552V44.7391Z" fill="#1F3A8A"/>
</g>
<defs>
<clipPath id="clip0_4_173">
<rect width="184" height="184" fill="white"/>
</clipPath>
</defs>
</svg>
